<svg width="76" height="100" viewBox="0 0 76 100" fill="none" xmlns="http://www.w3.org/2000/svg">
<path d="M75.0297 6.12339C75.774 6.48722 76.0824 7.38551 75.7185 8.12976L69.7895 20.2581C69.4257 21.0024 68.5274 21.3108 67.7832 20.9469C67.0389 20.5831 66.7305 19.6848 67.0943 18.9406L72.3646 8.15981L61.5838 2.88958C60.8395 2.52575 60.5312 1.62746 60.895 0.883209C61.2588 0.138954 62.1571 -0.169441 62.9014 0.194389L75.0297 6.12339ZM14.6776 99.962C1.45943 86.2877 -1.61269 73.3501 1.62994 61.6378C4.82941 50.0814 14.0883 40.0737 24.7393 31.9218C35.4253 23.743 47.7161 17.2788 57.3056 12.8663C62.1064 10.6573 66.2434 8.95643 69.1828 7.80693C70.6527 7.23209 71.8238 6.79486 72.6294 6.50066C73.0322 6.35355 73.3437 6.24219 73.5555 6.16723C73.6615 6.12975 73.7425 6.10138 73.7975 6.08219C73.8251 6.07259 73.8461 6.0653 73.8606 6.06031C73.8678 6.05782 73.8733 6.05589 73.8772 6.05455C73.8792 6.05388 73.8808 6.05331 73.8818 6.05298C73.883 6.05255 73.8839 6.05227 74.3709 7.47099C74.858 8.8897 74.858 8.88971 74.8575 8.88986C74.8568 8.89011 74.856 8.8904 74.8546 8.89088C74.8518 8.89185 74.8473 8.8934 74.8411 8.89552C74.8289 8.89976 74.81 8.9063 74.7847 8.91512C74.7341 8.93277 74.6575 8.95956 74.5562 8.99542C74.3535 9.06715 74.0515 9.1751 73.6585 9.31863C72.8724 9.60569 71.7226 10.0349 70.2754 10.6009C67.3805 11.733 63.2984 13.4111 58.5597 15.5916C49.0703 19.958 37.0012 26.3148 26.5626 34.3041C16.0891 42.3201 7.45884 51.8275 4.52118 62.4383C1.62668 72.8931 4.16942 84.7748 16.8346 97.8769L14.6776 99.962Z" fill="#A8E892"/>
</svg>
